<?xml version="1.0" standalone="no"?>
<!DOCTYPE svg PUBLIC "-//W3C//DTD SVG 20010904//EN"
 "http://www.w3.org/TR/2001/REC-SVG-20010904/DTD/svg10.dtd">
<svg version="1.0" xmlns="http://www.w3.org/2000/svg"
 width="300.000000pt" height="300.000000pt" viewBox="0 0 300.000000 300.000000"
 preserveAspectRatio="xMidYMid meet">
<metadata>
Created by potrace 1.11, written by Peter Selinger 2001-2013
</metadata>
<g transform="translate(0.000000,300.000000) scale(0.100000,-0.100000)"
fill="#000000" stroke="none">
<path d="M2024 2986 c-25 -18 -42 -56 -47 -106 -3 -33 -6 -35 -38 -34 -19 0
-54 3 -79 7 -25 3 -119 15 -210 27 -91 12 -176 23 -189 25 -178 30 -229 3
-246 -135 -4 -30 -8 -66 -10 -80 -2 -14 -7 -50 -10 -80 -3 -30 -8 -62 -10 -70
-2 -8 -7 -44 -11 -80 -3 -36 -7 -73 -8 -82 -3 -25 -7 -27 -57 -35 -101 -15
-90 -30 -116 162 -21 156 -24 172 -48 193 -36 30 -95 30 -132 -2 -22 -19 -27
-32 -28 -67 0 -44 14 -179 20 -189 2 -3 6 -35 9 -71 l6 -66 -92 -12 c-51 -7
-107 -14 -123 -16 -17 -2 -50 -6 -75 -9 -25 -3 -81 -10 -125 -16 -44 -6 -100
-13 -125 -16 -158 -18 -203 -47 -206 -133 -1 -27 2 -68 6 -92 4 -24 11 -71 14
-104 4 -33 9 -71 10 -85 7 -51 17 -126 21 -155 3 -16 12 -86 20 -155 29 -227
30 -231 66 -266 26 -25 38 -29 87 -29 50 1 125 8 202 20 14 2 45 6 70 10 25 3
61 8 80 10 19 3 55 8 80 11 25 3 61 7 80 10 98 12 140 15 141 7 0 -4 2 -15 4
-24 1 -8 6 -42 9 -75 4 -32 9 -70 11 -84 5 -31 9 -60 35 -270 12 -91 23 -176
25 -190 2 -14 7 -50 10 -80 4 -30 8 -65 10 -78 1 -12 6 -50 10 -85 4 -34 9
-71 11 -82 2 -11 7 -45 10 -75 3 -30 9 -74 13 -97 5 -23 6 -45 3 -48 -3 -3
-52 -5 -108 -5 -80 0 -106 -3 -118 -16 -20 -20 -20 -38 0 -58 14 -14 82 -16
604 -16 522 0 590 2 604 16 20 20 20 38 0 58 -12 13 -40 16 -143 16 l-128 0 7
47 c4 27 11 73 14 103 4 30 8 66 10 80 6 39 14 96 46 350 12 91 23 176 25 190
2 14 6 50 10 80 3 30 8 66 10 80 2 14 7 43 9 65 17 130 27 214 32 245 2 19 7
53 9 75 3 22 7 51 10 65 2 14 7 52 11 85 3 33 7 67 9 75 1 8 6 40 9 70 10 82
17 111 24 106 7 -4 17 -5 222 -31 69 -9 136 -18 150 -20 14 -2 52 -7 85 -11
33 -3 67 -8 75 -9 130 -24 196 -10 223 48 8 18 20 75 27 127 6 52 13 106 15
120 2 14 7 48 10 75 7 55 11 80 19 140 3 22 8 63 11 90 2 28 7 68 10 90 27
174 28 200 10 238 -23 49 -58 63 -210 82 -71 9 -141 18 -155 20 -14 2 -47 6
-75 10 -27 3 -61 8 -75 10 -14 2 -52 7 -85 11 -33 4 -63 8 -67 10 -5 1 -21 2
-38 3 l-29 1 6 63 c5 57 3 66 -19 91 -29 35 -101 46 -134 22z m-238 -1595 c-3
-4 -8 -32 -11 -62 -3 -30 -7 -63 -9 -74 -2 -11 -7 -51 -11 -90 -4 -38 -8 -72
-10 -75 -2 -3 -6 -32 -9 -65 -4 -33 -8 -71 -11 -85 -2 -14 -7 -46 -10 -72 -9
-84 -16 -142 -20 -168 -2 -14 -7 -47 -10 -75 -4 -27 -8 -61 -10 -75 -2 -14 -6
-50 -10 -80 -4 -30 -8 -66 -10 -80 -2 -14 -7 -50 -10 -80 -4 -30 -9 -63 -11
-74 -2 -10 -6 -44 -10 -75 -3 -31 -8 -59 -11 -63 -6 -10 -300 -10 -306 0 -3 4
-8 38 -12 77 -4 38 -8 72 -10 75 -1 3 -6 37 -10 75 -3 39 -13 115 -20 170 -8
55 -17 123 -20 150 -3 28 -8 61 -10 75 -2 14 -7 45 -10 70 -3 25 -7 61 -10 80
-3 19 -7 55 -10 80 -3 25 -7 61 -10 80 -3 19 -7 55 -10 80 -4 25 -8 56 -10 70
-2 14 -7 50 -10 81 l-7 57 39 6 c21 3 54 8 73 11 122 15 307 39 380 49 108 15
152 18 146 7z"/>
</g>
</svg>
